<svg width="157" height="157" viewBox="0 0 157 157" fill="none" xmlns="http://www.w3.org/2000/svg">
<g clip-path="url(#clip0)">
<path d="M132.72 27.4229C132.597 26.8516 132.328 26.431 131.976 26.1433C131.74 25.8617 131.434 25.6189 131.035 25.4478C109.926 16.4038 82.6242 15.4585 68.6612 36.1956C46.8575 23.963 22.9044 37.0956 8.12468 54.6735C7.84568 55.0057 7.68344 55.3598 7.59792 55.7178C7.41409 56.1329 7.36155 56.6285 7.50884 57.1954C13.2484 79.3007 17.8483 101.675 23.0969 123.898C23.1892 124.287 23.3494 124.602 23.5558 124.856C23.5594 126.546 25.1791 128.175 26.9313 126.962C44.12 115.073 65.1581 108.345 85.2631 116.14C85.8802 116.981 86.9219 117.448 87.8712 116.977C88.9297 116.969 89.6499 116.083 89.8205 115.056C104.266 99.0455 126.08 95.5847 146.781 98.4641C148.892 98.7582 149.604 96.5751 148.847 95.0642C148.915 94.745 148.918 94.3907 148.826 94.0025C143.508 71.7954 137.545 49.7457 132.72 27.4229ZM86.5824 111.565C66.4628 103.763 44.96 109.643 27.3264 121.015C22.3196 99.6742 17.8584 78.2068 12.3767 56.9784C25.9871 41.2602 47.8976 28.6732 67.9507 41.2967C68.651 41.7374 69.3411 41.7568 69.9299 41.5313C70.5569 41.4688 71.1644 41.1398 71.592 40.4309C83.8148 20.1329 109.047 21.5089 128.275 29.4202C132.935 50.8439 138.616 72.0213 143.75 93.3338C122.885 91.1137 101.035 95.5425 86.5824 111.565Z" fill="black"/>
<path d="M148.661 101.715C127.151 98.4796 98.9768 102.032 88.6199 122.562C70.131 108.893 43.3715 118.401 25.6198 130.971C22.4846 133.19 26.5966 137.183 29.7026 134.985C45.7674 123.609 71.5187 114.121 87.4548 129.234C88.3421 130.076 89.418 130.195 90.3645 129.9C91.3446 129.737 92.2507 129.147 92.6634 127.996C100.09 107.326 127.357 104.209 146.822 107.136C150.586 107.703 152.458 102.285 148.661 101.715Z" fill="black"/>
<path d="M24.8554 74.9996C25.5483 75.92 26.8673 76.3426 27.8894 75.2667C30.5245 72.4975 33.496 70.2294 36.9791 68.6333C38.1191 68.1113 38.2899 67.0462 37.9108 66.1592C37.9104 65.988 37.8964 65.8082 37.8513 65.6183L35.0908 54.0089C34.7667 52.646 33.5213 52.2505 32.4762 52.5457C32.2843 52.5419 32.0875 52.5556 31.872 52.6097C27.6889 53.6804 23.9334 55.7395 21.1319 59.0669C20.5822 59.7183 20.5009 60.4724 20.6981 61.1324C20.6746 61.3303 20.6673 61.5365 20.6999 61.76C21.2925 65.7015 22.1976 69.5757 23.1189 73.4503C23.3544 74.4408 24.0761 74.9222 24.8554 74.9996ZM24.8682 61.2056C26.7453 59.2801 28.9554 57.9543 31.4987 57.1087L33.5281 65.6436C31.0598 66.9443 28.8005 68.599 26.7492 70.4888C26.0313 67.4126 25.3559 64.3293 24.8682 61.2056Z" fill="black"/>
<path d="M43.7795 54.7509C48.4074 51.8269 53.3828 51.1398 58.6059 52.8114C61.1997 53.6419 62.4145 49.6088 59.8322 48.7826C53.6098 46.7913 47.28 47.5662 41.7506 51.0606C39.4688 52.5017 41.4765 56.2067 43.7795 54.7509Z" fill="black"/>
<path d="M45.5489 63.7098C50.3538 61.4434 55.2634 61.0694 60.2778 62.8759C62.8408 63.7989 64.0471 59.7628 61.5041 58.847C55.4249 56.6574 49.3117 57.286 43.5203 60.0192C41.064 61.178 43.1012 64.8663 45.5489 63.7098Z" fill="black"/>
<path d="M66.6378 71.3352C51.1256 66.9009 35.7617 73.7008 25.1722 85.163C23.3392 87.1471 26.2323 90.2108 28.0807 88.2087C37.6376 77.8656 51.2971 71.3289 65.4112 75.3641C68.0267 76.112 69.2483 72.0806 66.6378 71.3352Z" fill="black"/>
<path d="M68.9113 80.8958C53.3991 76.4618 38.0353 83.2617 27.4457 94.7239C25.613 96.7082 28.5061 99.7717 30.3544 97.7692C39.9113 87.4262 53.5707 80.8892 67.6849 84.9244C70.3002 85.6726 71.5219 81.6418 68.9113 80.8958Z" fill="black"/>
<path d="M71.1844 90.4564C55.6722 86.0221 40.3084 92.822 29.7188 104.284C27.8859 106.269 30.779 109.332 32.6273 107.33C42.1843 96.9871 55.8437 90.4501 69.9578 94.4853C72.5733 95.2329 73.7951 91.2026 71.1844 90.4564Z" fill="black"/>
<path d="M85.8083 72.2197C95.731 61.4003 110.79 59.8292 124.346 63.6497C126.967 64.3885 127.83 60.2654 125.233 59.5325C110.213 55.2983 93.5607 57.5353 82.6557 69.4266C80.8188 71.428 83.9696 74.224 85.8083 72.2197Z" fill="black"/>
<path d="M88.869 81.5587C98.7915 70.7385 113.85 69.1682 127.406 72.9889C130.027 73.7283 130.891 69.6039 128.292 68.872C113.271 64.6382 96.62 66.8746 85.7152 78.7662C83.8808 80.7664 87.0303 83.563 88.869 81.5587Z" fill="black"/>
<path d="M81.2617 53.0986C91.1844 42.2792 106.243 40.7081 119.799 44.5285C122.42 45.2674 123.284 41.1446 120.686 40.4114C105.666 36.1772 89.014 38.4139 78.1091 50.3055C76.2722 52.3066 79.423 55.1029 81.2617 53.0986Z" fill="black"/>
<path d="M81.1692 59.6433C79.3342 61.6453 82.4834 64.4406 84.3221 62.4363C94.2446 51.6162 109.303 50.0458 122.859 53.8657C125.48 54.6051 126.344 50.4815 123.745 49.7494C108.726 45.5161 92.0744 47.753 81.1692 59.6433Z" fill="black"/>
<path d="M131.354 78.2081C116.335 73.9752 99.6814 76.2117 88.7777 88.1035C86.9427 90.1059 90.0932 92.9006 91.9303 90.8955C101.853 80.0767 116.913 78.5052 130.468 82.3255C133.089 83.066 133.953 78.9417 131.354 78.2081Z" fill="black"/>
</g>
<defs>
<clipPath id="clip0">
<rect width="130" height="130" fill="white" transform="translate(0 30.0729) rotate(-13.3754)"/>
</clipPath>
</defs>
</svg>
