<svg width="132" height="133" viewBox="0 0 132 133" fill="none" xmlns="http://www.w3.org/2000/svg">
<g clip-path="url(#clip0)">
<path d="M125.578 58.6479C127.253 58.431 128.034 57.3333 128.123 56.0841C128.162 55.8484 128.181 55.5998 128.172 55.3317C127.854 46.4315 126.567 37.6755 124.573 29.0005C124.561 28.9557 124.543 28.9208 124.531 28.8779C124.372 27.3207 123.298 25.9434 121.261 26.0599C111.145 26.6341 100.055 27.1096 88.5672 27.53C92.5099 25.2432 96.1153 22.3417 99.2219 18.4031C102.535 14.2041 107.713 5.08299 99.7998 2.30504C93.2741 0.015657 84.9789 4.44508 79.5655 7.66466C73.5969 11.2155 68.2447 15.9741 64.43 21.7598C60.985 16.5246 56.2389 12.3369 50.2239 9.76164C44.0111 7.10224 36.0544 5.75021 29.7946 9.00944C23.788 12.1378 25.2292 18.785 28.9431 23.0446C31.0513 25.4633 33.8832 27.5382 36.8291 29.1525C26.463 29.462 16.455 29.7744 7.26131 30.1201C5.61247 30.1818 4.56259 31.1715 4.11455 32.3831C3.6489 32.9214 3.35502 33.6473 3.38117 34.5854C3.61397 42.6953 3.85748 50.804 4.10366 58.9127C4.16206 60.8132 5.45513 61.9165 6.90997 62.2208C7.3686 62.5213 7.91497 62.734 8.56893 62.7928C9.74871 62.8987 10.9622 62.9846 12.1654 63.0763C16.0806 84.3895 21.6831 105.437 21.9653 127.236C21.9876 128.935 23.0043 130 24.2555 130.425C24.6775 130.629 25.1705 130.75 25.7404 130.76C58.6752 131.272 90.5569 127.911 122.988 123.577C123.459 123.512 123.843 123.37 124.178 123.185C126.108 123.497 128.186 122.436 128.017 119.946C126.768 101.429 123.852 77.5526 121.315 59.1835C122.752 59.0063 124.176 58.8296 125.578 58.6479ZM95.6849 8.733C96.1536 8.69506 96.6053 8.71035 97.0563 8.77614C96.8196 11.2939 93.562 14.4651 92.1085 16.1338C86.1564 22.9647 77.2523 25.4946 68.7485 27.947C73.695 18.5326 85.3227 9.58317 95.6849 8.733ZM32.5714 16.152C32.357 15.5222 32.6114 15.2174 33.7884 14.7663C43.6374 10.9976 54.6623 18.7141 59.7381 27.277C51.9623 25.5992 44.2676 25.9398 37.359 21.1857C35.629 19.9973 33.2801 18.243 32.5714 16.152ZM10.9619 56.0266C10.7687 49.6671 10.5789 43.3071 10.395 36.9469C26.5473 36.3489 45.4842 35.8461 64.4152 35.27C65.1251 35.7726 66.0582 35.9797 67.1684 35.6455C67.7428 35.474 68.3124 35.3017 68.8831 35.1315C86.2885 34.5887 103.502 33.9764 118.353 33.155C119.706 39.4747 120.674 45.8214 121.076 52.2684C88.2746 56.426 43.9811 58.7398 10.9619 56.0266ZM66.7602 63.6151C72.9442 63.3583 79.1179 63.006 85.2201 62.5875C85.3465 62.7736 85.4854 62.9566 85.6608 63.1339C89.3785 66.9003 93.3536 70.3764 97.4651 73.6858L92.1491 73.616C91.3419 73.6054 90.6822 73.8273 90.1619 74.1895C89.1095 74.4373 88.1637 75.1526 87.7193 76.4548C86.8005 79.1408 86.0336 81.8594 85.3881 84.6112C78.1893 79.6396 71.8749 73.694 66.4573 66.7714C66.565 66.1235 66.6793 65.4772 66.7809 64.827C66.8467 64.3971 66.8252 63.9965 66.7602 63.6151ZM59.9455 63.858C58.7014 71.632 56.9253 79.2639 54.747 86.81C52.7654 84.1512 50.7619 81.5076 48.6796 78.9262C47.4433 77.3926 45.796 77.4771 44.5716 78.3431C42.127 79.3179 39.6649 80.2366 37.1792 81.0848C38.5929 75.5302 39.4705 69.8774 39.7545 64.1303C46.3825 64.1666 53.1478 64.0658 59.9455 63.858ZM120.838 116.908C90.135 121.048 59.9436 123.755 28.8163 123.807C28.0507 103.391 23.0855 83.5617 19.3072 63.543C23.701 63.7784 28.2081 63.9448 32.8092 64.0385C32.4413 71.067 31.0948 77.867 28.9388 84.5964C27.6644 86.93 29.4495 90.6528 32.763 89.734C36.9498 88.5718 41.039 87.1304 45.0827 85.5494C47.7015 88.8772 50.2346 92.2705 52.7321 95.6945C52.8182 95.8137 52.9183 95.9195 53.0125 96.0293C54.3543 98.2072 58.4067 98.509 59.4339 95.2994C61.5162 88.7873 63.3198 82.2215 64.7707 75.568C70.7126 82.3037 77.6052 88.0679 85.2801 92.8518C85.8023 93.1762 86.3147 93.3336 86.8079 93.3767C88.5629 94.0839 90.6875 93.5731 91.1003 91.1996C91.7257 87.5943 92.6013 84.0638 93.6906 80.5827L107.341 80.7621C109.946 80.7964 111.056 78.4646 110.658 76.4915C110.569 75.5606 110.126 74.6457 109.183 73.9644C104.011 70.2163 99.0534 66.2346 94.3892 61.8975C101.272 61.3365 108.004 60.6895 114.458 59.9772C116.803 77.0813 119.502 99.6893 120.838 116.908Z" fill="black"/>
</g>
<defs>
<clipPath id="clip0">
<rect width="130" height="130" fill="white" transform="translate(1.7085 0.433838) rotate(0.752983)"/>
</clipPath>
</defs>
</svg>
