<svg width="130" height="130" viewBox="0 0 130 130" fill="none" xmlns="http://www.w3.org/2000/svg">
<g clip-path="url(#clip0)">
<path d="M96.7198 42.5575C96.9385 42.0498 97.0716 41.4931 97.0689 40.8846C97.0544 37.4223 97.0958 33.6675 96.0872 30.3286C95.5236 28.464 93.8576 27.1257 91.8798 27.1257C89.7227 27.1257 87.2254 29.1221 87.5179 31.4882C87.6552 32.6085 87.8153 33.7358 87.9932 34.8609C77.7532 25.6721 67.0951 16.909 56.3004 8.39911C54.7931 7.21119 52.4945 6.36061 50.7188 7.67891C30.6009 22.6154 21.5087 47.1436 5.70779 65.9605C3.11052 69.0524 6.66874 74.8119 10.3573 71.9856C29.0963 57.6286 35.3732 32.7996 53.1264 17.5154C62.5166 24.7829 71.5653 32.5223 80.4519 40.3866C88.5368 47.5416 99.4812 55.6797 104.065 65.7694C105.664 69.289 110.435 67.741 111.505 64.7974C114.064 57.7596 103.589 48.4129 96.7198 42.5575Z" fill="black"/>
<path d="M100.557 69.0731C98.4685 63.453 89.4592 65.7888 91.4673 71.5787C96.2396 85.3363 96.2493 100.61 95.5877 115.158C87.1771 115.411 78.7638 116.597 70.3553 117.8C69.4709 109.444 67.5552 100.359 60.825 94.7706C59.8841 93.989 58.4209 94.2222 58.0553 95.5025C55.8092 103.36 58.1167 111.436 58.4782 119.418C48.7079 120.603 38.9459 121.236 29.1977 119.879C27.2296 103.89 26.9826 87.679 22.6931 72.0602C21.8501 68.989 17.204 69.6368 17.1847 72.8059C17.0757 90.3501 17.9539 107.922 20.3435 125.307C20.5477 126.791 22.2399 128.378 23.6782 128.642C49.3384 133.336 74.4709 124.336 100.144 124.695C102.859 124.733 104.796 122.484 104.932 119.907C105.817 103.317 106.436 84.8906 100.557 69.0731ZM60.6822 99.2449C65.1614 104.405 66.1258 111.566 66.8998 118.294C64.902 118.577 62.9035 118.85 60.9051 119.108C61.4314 112.493 59.7765 105.79 60.6822 99.2449Z" fill="black"/>
<path d="M86.6135 15.7025C87.0577 15.4349 86.9163 15.5335 87.2633 15.4217C88.0484 15.1686 88.8741 15.1637 89.6647 14.9395C91.9474 14.2925 92.2378 10.5073 89.6647 10.0389C85.1855 9.22349 80.2862 12.5003 81.1947 17.3616C81.5121 19.0614 82.8966 20.6156 84.4632 21.2516C86.3582 22.0208 87.8352 21.1461 89.566 20.5211C90.1841 20.2976 90.1427 19.2214 89.4005 19.2966C88.3209 19.4063 87.5434 18.7634 86.7846 18.0797C86.6266 17.9369 86.49 17.7693 86.352 17.6072C86.2292 17.463 86.1941 17.4299 86.1927 17.4389C86.1823 17.4251 86.1803 17.4209 86.1692 17.4044C86.1444 17.3685 86.0361 17.1574 85.9933 17.0912C85.9609 16.9642 85.9236 16.8001 85.9023 16.729C85.9016 16.6821 85.9016 16.6352 85.9029 16.5883C85.9181 16.5503 85.9499 16.3496 85.9781 16.2537C85.9974 16.2268 86.0216 16.1882 86.0588 16.124C86.0637 16.1171 86.0609 16.1206 86.0657 16.1137C86.1568 16.0164 86.252 15.9226 86.352 15.8357C85.943 16.2096 86.5479 15.7418 86.6135 15.7025Z" fill="black"/>
<path d="M97.8159 0.000263971C93.8017 0.0506227 92.5999 4.25109 92.6262 7.52372C92.6413 9.50564 95.4649 9.85195 96.0312 7.98453C96.323 7.02151 96.67 6.16679 97.2481 5.33967C97.5234 4.94577 97.5613 4.88023 97.7807 4.92576C99.953 5.3783 100.705 8.1094 102.958 8.48122C103.842 8.62747 105.09 8.26047 105.234 7.18914C105.719 3.59022 101.294 -0.0431963 97.8159 0.000263971Z" fill="black"/>
<path d="M125.122 11.5421C124.348 4.49049 117.013 0.735663 110.946 4.56017C109.407 5.53009 110.466 7.59342 112.116 7.33679C115.708 6.77871 119.515 7.72794 119.873 11.9353C120.015 13.6061 119.415 15.003 118.179 16.1027C116.324 17.7555 113.564 16.5738 111.74 18.2943C110.8 19.1814 110.915 20.6418 111.74 21.5442C114.315 24.3594 119.634 21.9463 122.04 19.9617C124.421 17.9956 125.449 14.525 125.122 11.5421Z" fill="black"/>
<path d="M113.406 24.0096C112.646 23.0907 110.891 24.0751 111.356 25.2037C111.84 26.3771 112.186 27.4961 111.795 28.7378C111.694 29.0593 111.57 29.2372 111.434 29.3869C111.388 29.4373 111.362 29.4676 111.339 29.4959C111.309 29.5132 111.28 29.5304 111.229 29.5635C111.17 29.6022 110.896 29.7188 110.849 29.7443C110.691 29.7988 110.53 29.8533 110.369 29.9009C110.317 29.916 110.151 29.9388 110.03 29.9561C109.903 29.9616 109.779 29.9581 109.654 29.9533C109.595 29.9381 109.239 29.8974 109.164 29.8788C108.647 29.7519 108.136 29.5587 107.641 29.3662C106.892 29.0758 106.179 29.0731 105.328 29.3097C104.358 29.5801 103.673 30.481 103.671 31.4882C103.662 34.1869 106.412 35.2975 108.651 35.5886C110.448 35.8218 112.455 35.1934 113.82 34.0268C117.185 31.1502 115.844 26.9559 113.406 24.0096Z" fill="black"/>
<path d="M49.306 80.5039C49.1018 79.5891 48.1677 78.9441 47.2592 78.9455C43.2153 78.949 38.4602 78.5013 34.6882 80.179C33.6886 80.6239 33.5423 81.7946 33.9307 82.7052C32.7683 89.9479 33.1174 97.5562 34.7364 104.696C34.9151 105.486 35.7257 106.061 36.5169 106.052C41.6935 105.991 48.8231 105.356 50.9816 99.6733C53.2084 93.8048 50.5974 86.2931 49.306 80.5039ZM45.5856 83.2474C46.0237 85.0955 46.4866 86.9677 46.8612 88.8503C45.8857 88.8034 44.9144 88.8351 43.9452 88.9096C43.4547 87.0567 42.9463 85.2093 42.3792 83.384C43.4457 83.3309 44.5102 83.2695 45.5856 83.2474ZM40.1407 83.5061C40.4725 85.4004 40.7512 87.3133 41.034 89.2235C39.5557 89.4098 38.0739 89.6029 36.579 89.6754C36.4155 87.7328 36.2355 85.7922 35.9623 83.8572C37.3634 83.713 38.7513 83.6027 40.1407 83.5061ZM38.018 102.324C37.362 98.9993 37.0667 95.6439 36.7956 92.2871C38.3554 92.3071 39.9234 92.2513 41.49 92.1457C41.9081 94.6995 42.3986 97.2347 43.1457 99.6988C43.4161 100.591 44.1452 100.92 44.853 100.865C42.9401 101.954 40.3352 102.242 38.018 102.324ZM47.5558 96.5228C47.48 97.8204 47.0592 98.8131 46.4245 99.594C46.4762 99.3525 46.4852 99.0911 46.4135 98.7979C45.8471 96.4904 45.289 94.1676 44.7075 91.8491C45.5815 91.7463 46.4493 91.6249 47.3151 91.489C47.5441 93.1625 47.6538 94.8437 47.5558 96.5228Z" fill="black"/>
<path d="M87.816 80.7412C87.9629 80.1438 87.847 79.496 87.4483 79.0221C87.4048 78.9662 87.3738 78.909 87.3186 78.8703C87.1227 78.6889 86.8923 78.5358 86.5887 78.4578C82.3676 77.3706 78.007 78.126 73.7017 78.1605C72.5552 78.1701 71.6363 79.1001 71.6211 80.2418C71.5328 86.5766 71.4197 92.9115 71.3673 99.2477C71.3535 100.846 72.8601 101.793 74.3219 101.499C78.8211 100.593 83.1664 100.173 87.749 100.569C88.8776 100.667 89.949 99.5181 89.8965 98.4212C89.6109 92.4637 88.5568 86.6414 87.816 80.7412ZM86.021 82.0905C85.8865 84.2028 85.8244 86.3179 85.7768 88.433C84.7848 88.3419 83.7666 88.3323 82.7352 88.3792C82.5793 86.2331 82.2951 84.1166 81.8074 82.0333C83.205 82.014 84.6047 82.0188 86.021 82.0905ZM79.3205 82.094C79.3419 84.2849 79.3495 86.4773 79.3288 88.6675C78.1712 88.8 77.0219 88.9483 75.9003 89.0697C75.8692 86.7911 75.8423 84.5133 75.8092 82.2354C76.9833 82.1837 78.1526 82.1347 79.3205 82.094ZM75.9982 96.4973C75.9796 94.7478 75.9513 92.9984 75.9279 91.2496C77.0123 91.3683 78.1222 91.5104 79.2384 91.6387C79.1729 93.1501 79.1667 94.6561 79.6468 96.064C78.4313 96.1696 77.2158 96.3082 75.9982 96.4973ZM82.6842 95.915C83.0836 94.6416 83.0843 93.3005 83.0043 91.9491C83.9204 91.9829 84.8248 91.967 85.7099 91.8905C85.6905 93.264 85.6698 94.6361 85.6457 96.0102C84.6551 95.9261 83.6693 95.9068 82.6842 95.915Z" fill="black"/>
</g>
<defs>
<clipPath id="clip0">
<rect width="130" height="130" fill="white" transform="translate(0 0.000244141)"/>
</clipPath>
</defs>
</svg>
