<svg width="124" height="101" viewBox="0 0 124 101" fill="none" xmlns="http://www.w3.org/2000/svg">
<path d="M35.2037 7.14849L35.2132 12.1485L35.2397 12.1484L35.2663 12.1481L35.2037 7.14849ZM25.791 6.57804L23.9258 11.2171L24.4819 11.4407L25.0751 11.5265L25.791 6.57804ZM11.5154 6.40415L13.5722 10.9615L13.5832 10.9565L11.5154 6.40415ZM6.83339 19.024L2.31457 21.1642L2.31912 21.1738L2.32372 21.1834L6.83339 19.024ZM19.3698 25.0835L19.4663 30.0826L19.5041 30.0818L19.5419 30.0805L19.3698 25.0835ZM46.4531 23.0381L46.4003 28.0378L46.4104 28.0379L46.4205 28.038L46.4531 23.0381ZM90.0731 25.6816L89.6747 30.6657L89.7227 30.6696L89.7706 30.6725L90.0731 25.6816ZM99.618 35.477L104.618 35.4231L104.617 35.3813L104.616 35.3396L99.618 35.477ZM99.7224 45.161L99.728 50.161L104.777 50.1553L104.722 45.1071L99.7224 45.161ZM32.0732 51.1998L27.1273 50.4661L27.1248 50.4832L27.1224 50.5003L32.0732 51.1998ZM41.6182 60.9951L42.0113 56.0106L41.966 56.007L41.9206 56.0043L41.6182 60.9951ZM98.2337 62.122L103.195 62.7452L103.932 56.8749L98.021 57.1265L98.2337 62.122ZM94.3726 84.0085L89.4834 82.9618L89.4817 82.9699L89.48 82.9779L94.3726 84.0085ZM102.199 95.5431L101.28 100.458L101.363 100.473L101.446 100.486L102.199 95.5431ZM112.815 87.6609L117.601 89.1111L117.616 89.0613L117.63 89.0112L112.815 87.6609ZM118.388 52.744L123.379 53.0465L123.381 53.0019L123.383 52.9573L118.388 52.744ZM118.416 21.8691L113.438 22.3408L113.439 22.3551L113.441 22.3695L118.416 21.8691ZM105.552 9.7989L105.052 14.7739L105.086 14.7772L105.119 14.7801L105.552 9.7989ZM35.1943 2.1485C31.6756 2.15514 28.944 1.98213 26.5069 1.62956L25.0751 11.5265C28.12 11.967 31.3575 12.1558 35.2132 12.1485L35.1943 2.1485ZM27.6562 1.93896C25.0029 0.872191 21.8426 0.278516 18.7795 0.196298C15.7493 0.114964 12.3734 0.522772 9.44753 1.85179L13.5832 10.9565C14.6854 10.4558 16.4229 10.1366 18.5112 10.1927C20.5666 10.2479 22.5301 10.656 23.9258 11.2171L27.6562 1.93896ZM9.45856 1.8468C2.54149 4.96859 -1.19177 13.7608 2.31457 21.1642L11.3522 16.8839C10.3643 14.7981 11.487 11.9026 13.5722 10.9615L9.45856 1.8468ZM2.32372 21.1834C5.58809 28.0008 12.7811 30.2116 19.4663 30.0826L19.2733 20.0844C14.4239 20.178 12.1694 18.5904 11.3431 16.8647L2.32372 21.1834ZM19.5419 30.0805C24.6864 29.9034 28.3143 29.3099 31.9986 28.8407C35.6538 28.3753 39.7667 27.9677 46.4003 28.0378L46.506 18.0384C39.3231 17.9624 34.7433 18.4105 30.7355 18.9208C26.7567 19.4274 23.7512 19.9297 19.1977 20.0865L19.5419 30.0805ZM46.4205 28.038C54.7212 28.0922 77.6944 29.7082 89.6747 30.6657L90.4715 20.6975C78.6034 19.7489 55.2295 18.0953 46.4858 18.0382L46.4205 28.038ZM89.7706 30.6725C91.7696 30.7936 92.9871 30.9575 93.7638 31.1593C94.4829 31.3461 94.4261 31.4664 94.2276 31.256C94.0332 31.05 94.1523 31.0013 94.3026 31.724C94.4648 32.5043 94.5669 33.685 94.6199 35.6143L104.616 35.3396C104.561 33.3452 104.449 31.4022 104.093 29.6885C103.725 27.9171 103.021 26.0039 101.5 24.3927C99.9757 22.777 98.0897 21.9511 96.278 21.4805C94.5239 21.0249 92.5091 20.8201 90.3756 20.6908L89.7706 30.6725ZM94.6183 35.5308L94.7227 45.2149L104.722 45.1071L104.618 35.4231L94.6183 35.5308ZM99.7168 40.161C81.0882 40.1819 62.0966 39.9454 43.4233 38.8137L42.8183 48.7954C61.796 49.9455 81.0258 50.182 99.728 50.161L99.7168 40.161ZM43.4233 38.8137C39.3426 38.5664 35.4469 39.1023 32.3472 41.2786C29.0923 43.564 27.6434 46.9872 27.1273 50.4661L37.0191 51.9335C37.2822 50.1599 37.7986 49.6699 38.0935 49.4628C38.5435 49.1468 39.7821 48.6114 42.8183 48.7954L43.4233 38.8137ZM27.1224 50.5003C26.5513 54.5426 27.4502 58.5415 30.3649 61.5574C33.1562 64.4457 37.1256 65.732 41.3157 65.986L41.9206 56.0043C39.2234 55.8408 38.0168 55.0853 37.5557 54.6082C37.218 54.2587 36.7882 53.5686 37.024 51.8993L27.1224 50.5003ZM41.225 65.9796C53.9813 66.9858 78.0949 67.984 98.4464 67.1175L98.021 57.1265C78.1753 57.9715 54.4808 56.9941 42.0113 56.0106L41.225 65.9796ZM93.2726 61.4989C92.4069 68.3911 91.0748 75.5285 89.4834 82.9618L99.2618 85.0552C100.885 77.4755 102.279 70.0311 103.195 62.7452L93.2726 61.4989ZM89.48 82.9779C88.574 87.279 89.3519 91.3747 91.6959 94.6222C93.997 97.8103 97.492 99.7495 101.28 100.458L103.118 90.6283C101.438 90.3141 100.373 89.5575 99.8044 88.7696C99.2786 88.0413 98.8773 86.881 99.2653 85.0391L89.48 82.9779ZM101.446 100.486C109.827 101.763 115.74 95.2513 117.601 89.1111L108.03 86.2107C107.573 87.7206 106.707 88.9855 105.733 89.7616C104.816 90.4936 103.894 90.7437 102.952 90.6001L101.446 100.486ZM117.63 89.0112C120.095 80.2229 122.791 62.7417 123.379 53.0465L113.397 52.4415C112.844 61.5718 110.239 78.3326 108.001 86.3105L117.63 89.0112ZM123.383 52.9573C123.929 40.1692 124.296 30.3691 123.391 21.3688L113.441 22.3695C114.261 30.5249 113.946 39.5782 113.392 52.5307L123.383 52.9573ZM123.393 21.3975C122.982 17.0601 121.691 12.9028 118.484 9.76391C115.297 6.64473 110.95 5.24994 105.986 4.81774L105.119 14.7801C108.864 15.1061 110.598 16.0384 111.489 16.9108C112.361 17.7634 113.146 19.2621 113.438 22.3408L123.393 21.3975ZM106.052 4.82394C82.6461 2.47285 44.6684 2.02968 35.1412 2.14888L35.2663 12.1481C44.648 12.0307 82.1948 12.4778 105.052 14.7739L106.052 4.82394Z" fill="black"/>
</svg>
