<svg width="149" height="149" viewBox="0 0 149 149" fill="none" xmlns="http://www.w3.org/2000/svg">
<g clip-path="url(#clip0)">
<path d="M121.528 68.9454C120.761 64.903 118.556 61.0329 115.095 58.3803C114.883 58.1879 114.667 58.0006 114.447 57.816C127.031 50.5101 120.948 30.8424 106.001 31.3927C106.051 26.8162 104.328 22.9866 101.529 19.9417C95.9956 11.1516 82.1053 7.66798 72.7603 12.0994C67.6652 13.3771 63.809 16.2488 62.9271 20.7996C59.1374 19.5281 54.3656 20.6187 51.2002 22.7111C46.6788 25.6994 44.4434 31.1437 45.0705 36.3529C43.1679 36.4316 41.4956 37.0685 40.079 38.1621C34.0511 40.5558 30.309 48.0822 30.2155 54.7186C30.1185 61.5915 34.3972 72.9564 42.4277 72.0919C35.9525 75.994 40.8521 83.9105 47.2871 90.5154C47.8537 91.1207 48.4531 91.7144 49.0853 92.2922C53.0538 96.0766 57.223 99.2076 59.4522 100.522C62.0642 102.062 64.818 103.285 67.6374 104.209C66.3149 109.553 64.7731 114.713 62.9684 120.015C60.9307 126.002 60.1216 133.196 65.307 137.989C70.8182 143.083 75.8754 131.61 77.0758 128.275C78.6435 123.916 79.2246 119.534 79.4454 114.914C79.5621 112.488 80.0746 109.091 79.7397 106.255C87.7442 106.37 95.4891 104.019 101.423 99.0885C106.455 96.2589 110.218 92.2983 111.3 87.1298C120.803 84.4337 123.475 76.4798 121.528 68.9454ZM105.439 83.7203C104.217 87.8584 102.115 91.1973 99.436 93.8069C91.6288 98.8274 81.6136 100.631 72.0093 99.579C70.9865 99.4665 69.8331 99.243 68.5956 98.9215C67.6333 98.5859 66.6838 98.2095 65.7536 97.7926C60.102 95.2587 47.6738 87.6046 45.5395 80.1048C45.5676 77.4817 46.9206 74.803 50.1715 72.2137C51.5534 71.113 50.671 69.1396 48.9986 69.1695C40.8414 69.3131 38.5007 60.0837 38.1026 53.5827C37.7952 48.5593 39.2194 44.7034 42.2157 42.0317C43.8155 41.5175 45.5869 41.3622 47.441 41.1343C48.2109 41.0395 48.7453 40.3539 48.8682 39.638C49.4135 39.571 49.9168 39.149 49.7813 38.5175C49.2195 35.9021 49.4603 33.1022 50.362 30.7152C51.1041 29.3372 52.1108 28.077 53.3872 26.9889C54.8365 25.7535 56.5595 25.077 58.4215 24.8525C60.1677 24.9935 62.1115 25.6986 64.237 27.2285C64.5314 27.4404 64.8792 27.5344 65.223 27.5397C67.0359 28.2583 68.2999 25.9275 67.4381 24.4293C67.3688 24.3092 67.2857 24.2093 67.212 24.0947C67.8322 21.6822 68.919 19.7358 70.3381 18.198C74.3788 15.9637 80.6204 16.1329 84.6397 16.8301C93.2263 18.3191 99.3274 23.4186 100.529 31.5898C100.545 31.7611 100.566 31.9285 100.579 32.1014C100.583 32.1576 100.616 32.189 100.625 32.2404C100.653 32.4847 100.666 32.7371 100.685 32.9863C100.498 33.3973 100.534 33.8772 100.774 34.2429C100.88 36.2827 103.161 36.7749 104.6 35.8837C114.84 37.4522 122.919 51.6272 108.783 54.8181C106.467 55.3402 105.602 58.4504 108.015 59.594C117.535 64.1076 121.063 76.9723 111.073 81.7057C110.737 81.5806 110.319 81.6745 110.128 82.0552C110.123 82.0656 110.117 82.0744 110.111 82.0849C110.08 82.0967 110.046 82.1088 110.013 82.1205C108.64 81.1624 106.085 81.5348 105.439 83.7203Z" fill="black"/>
</g>
<defs>
<clipPath id="clip0">
<rect width="130" height="130" fill="white" transform="translate(20.6477 0.000244141) rotate(9.13892)"/>
</clipPath>
</defs>
</svg>
